<svg width="1440" height="908" viewBox="0 0 1440 908" fill="none" xmlns="http://www.w3.org/2000/svg">
<g clip-path="url(#clip0_52_645)">
<g filter="url(#filter0_f_52_645)">
<ellipse cx="1509.27" cy="649.408" rx="664.985" ry="673.184" transform="rotate(51.5415 1509.27 649.408)" fill="url(#paint0_linear_52_645)"/>
</g>
<g filter="url(#filter1_f_52_645)">
<ellipse cx="1236.06" cy="1264.08" rx="449.681" ry="454.849" transform="rotate(180 1236.06 1264.08)" fill="#3B1FE7"/>
</g>
<g filter="url(#filter2_f_52_645)">
<ellipse cx="1447.09" cy="1359.61" rx="367.337" ry="371.793" transform="rotate(180 1447.09 1359.61)" fill="#FFC1DF"/>
</g>
<g filter="url(#filter3_f_52_645)">
<path d="M658.633 346.868C518.225 697.187 740.059 1128.47 1375.14 1247.6C785.873 1007.2 779.625 608.69 834.369 311.707L658.633 346.868Z" fill="white" fill-opacity="0.85"/>
</g>
<g filter="url(#filter4_f_52_645)">
<path d="M516.567 511.97C361.606 728.112 440.937 1060.54 855.532 1248.79C492.67 985.244 555.366 711.48 642.74 517.442L516.567 511.97Z" fill="white" fill-opacity="0.85"/>
</g>
<g filter="url(#filter5_f_52_645)">
<path d="M993.118 361.907C885.229 641.383 1065.68 981.445 1570.96 1069.56C1100.81 884.725 1091.81 568.491 1132.25 332.217L993.118 361.907Z" fill="url(#paint1_linear_52_645)" fill-opacity="0.7"/>
</g>
<g filter="url(#filter6_f_52_645)">
<path d="M1209.52 320.445C1165.3 616.742 1415.68 909.161 1928.01 884.744C1428.83 807.102 1845.53 408.612 1833.37 169.212L1209.52 320.445Z" fill="white" fill-opacity="0.8"/>
</g>
<g filter="url(#filter7_f_52_645)">
<ellipse cx="664.985" cy="673.184" rx="664.985" ry="673.184" transform="matrix(-0.621948 0.783059 0.783059 0.621948 -257.827 -290)" fill="url(#paint2_linear_52_645)"/>
</g>
<g filter="url(#filter8_f_52_645)">
<ellipse cx="449.681" cy="454.849" rx="449.681" ry="454.849" transform="matrix(1 0 0 -1 -320.739 1718.93)" fill="#3B1FE7"/>
</g>
<g filter="url(#filter9_f_52_645)">
<ellipse cx="367.337" cy="371.793" rx="367.337" ry="371.793" transform="matrix(1 0 0 -1 -449.423 1731.4)" fill="#FFC1DF"/>
</g>
<g filter="url(#filter10_f_52_645)">
<path d="M706.367 346.868C846.775 697.187 624.941 1128.47 -10.1443 1247.6C579.127 1007.2 585.375 608.69 530.631 311.707L706.367 346.868Z" fill="white" fill-opacity="0.85"/>
</g>
<g filter="url(#filter11_f_52_645)">
<path d="M848.433 511.97C1003.39 728.112 924.063 1060.54 509.468 1248.79C872.33 985.244 809.634 711.48 722.26 517.442L848.433 511.97Z" fill="white" fill-opacity="0.85"/>
</g>
<g filter="url(#filter12_f_52_645)">
<path d="M371.882 361.907C479.771 641.383 299.325 981.445 -205.957 1069.56C264.192 884.725 273.193 568.491 232.754 332.217L371.882 361.907Z" fill="url(#paint3_linear_52_645)" fill-opacity="0.7"/>
</g>
<g filter="url(#filter13_f_52_645)">
<path d="M155.485 320.445C199.704 616.742 -50.6832 909.161 -563.009 884.744C-63.8345 807.102 -480.532 408.612 -468.369 169.212L155.485 320.445Z" fill="white" fill-opacity="0.8"/>
</g>
</g>
<defs>
<filter id="filter0_f_52_645" x="482.753" y="-375.249" width="2053.04" height="2049.31" filterUnits="userSpaceOnUse" color-interpolation-filters="sRGB">
<feFlood flood-opacity="0" result="BackgroundImageFix"/>
<feBlend mode="normal" in="SourceGraphic" in2="BackgroundImageFix" result="shape"/>
<feGaussianBlur stdDeviation="178.232" result="effect1_foregroundBlur_52_645"/>
</filter>
<filter id="filter1_f_52_645" x="429.913" y="452.762" width="1612.29" height="1622.63" filterUnits="userSpaceOnUse" color-interpolation-filters="sRGB">
<feFlood flood-opacity="0" result="BackgroundImageFix"/>
<feBlend mode="normal" in="SourceGraphic" in2="BackgroundImageFix" result="shape"/>
<feGaussianBlur stdDeviation="178.232" result="effect1_foregroundBlur_52_645"/>
</filter>
<filter id="filter2_f_52_645" x="723.284" y="631.351" width="1447.6" height="1456.52" filterUnits="userSpaceOnUse" color-interpolation-filters="sRGB">
<feFlood flood-opacity="0" result="BackgroundImageFix"/>
<feBlend mode="normal" in="SourceGraphic" in2="BackgroundImageFix" result="shape"/>
<feGaussianBlur stdDeviation="178.232" result="effect1_foregroundBlur_52_645"/>
</filter>
<filter id="filter3_f_52_645" x="439.947" y="133.475" width="1113.43" height="1292.36" filterUnits="userSpaceOnUse" color-interpolation-filters="sRGB">
<feFlood flood-opacity="0" result="BackgroundImageFix"/>
<feBlend mode="normal" in="SourceGraphic" in2="BackgroundImageFix" result="shape"/>
<feGaussianBlur stdDeviation="89.1162" result="effect1_foregroundBlur_52_645"/>
</filter>
<filter id="filter4_f_52_645" x="264.775" y="333.738" width="768.989" height="1093.29" filterUnits="userSpaceOnUse" color-interpolation-filters="sRGB">
<feFlood flood-opacity="0" result="BackgroundImageFix"/>
<feBlend mode="normal" in="SourceGraphic" in2="BackgroundImageFix" result="shape"/>
<feGaussianBlur stdDeviation="89.1162" result="effect1_foregroundBlur_52_645"/>
</filter>
<filter id="filter5_f_52_645" x="838.313" y="207.454" width="857.407" height="986.866" filterUnits="userSpaceOnUse" color-interpolation-filters="sRGB">
<feFlood flood-opacity="0" result="BackgroundImageFix"/>
<feBlend mode="normal" in="SourceGraphic" in2="BackgroundImageFix" result="shape"/>
<feGaussianBlur stdDeviation="62.3814" result="effect1_foregroundBlur_52_645"/>
</filter>
<filter id="filter6_f_52_645" x="990.644" y="-44.6671" width="1151.24" height="1144.72" filterUnits="userSpaceOnUse" color-interpolation-filters="sRGB">
<feFlood flood-opacity="0" result="BackgroundImageFix"/>
<feBlend mode="normal" in="SourceGraphic" in2="BackgroundImageFix" result="shape"/>
<feGaussianBlur stdDeviation="106.94" result="effect1_foregroundBlur_52_645"/>
</filter>
<filter id="filter7_f_52_645" x="-1170.79" y="-375.249" width="2053.04" height="2049.31" filterUnits="userSpaceOnUse" color-interpolation-filters="sRGB">
<feFlood flood-opacity="0" result="BackgroundImageFix"/>
<feBlend mode="normal" in="SourceGraphic" in2="BackgroundImageFix" result="shape"/>
<feGaussianBlur stdDeviation="178.232" result="effect1_foregroundBlur_52_645"/>
</filter>
<filter id="filter8_f_52_645" x="-677.204" y="452.762" width="1612.29" height="1622.63" filterUnits="userSpaceOnUse" color-interpolation-filters="sRGB">
<feFlood flood-opacity="0" result="BackgroundImageFix"/>
<feBlend mode="normal" in="SourceGraphic" in2="BackgroundImageFix" result="shape"/>
<feGaussianBlur stdDeviation="178.232" result="effect1_foregroundBlur_52_645"/>
</filter>
<filter id="filter9_f_52_645" x="-805.888" y="631.351" width="1447.6" height="1456.52" filterUnits="userSpaceOnUse" color-interpolation-filters="sRGB">
<feFlood flood-opacity="0" result="BackgroundImageFix"/>
<feBlend mode="normal" in="SourceGraphic" in2="BackgroundImageFix" result="shape"/>
<feGaussianBlur stdDeviation="178.232" result="effect1_foregroundBlur_52_645"/>
</filter>
<filter id="filter10_f_52_645" x="-188.377" y="133.475" width="1113.43" height="1292.36" filterUnits="userSpaceOnUse" color-interpolation-filters="sRGB">
<feFlood flood-opacity="0" result="BackgroundImageFix"/>
<feBlend mode="normal" in="SourceGraphic" in2="BackgroundImageFix" result="shape"/>
<feGaussianBlur stdDeviation="89.1162" result="effect1_foregroundBlur_52_645"/>
</filter>
<filter id="filter11_f_52_645" x="331.236" y="333.738" width="768.989" height="1093.29" filterUnits="userSpaceOnUse" color-interpolation-filters="sRGB">
<feFlood flood-opacity="0" result="BackgroundImageFix"/>
<feBlend mode="normal" in="SourceGraphic" in2="BackgroundImageFix" result="shape"/>
<feGaussianBlur stdDeviation="89.1162" result="effect1_foregroundBlur_52_645"/>
</filter>
<filter id="filter12_f_52_645" x="-330.72" y="207.454" width="857.407" height="986.866" filterUnits="userSpaceOnUse" color-interpolation-filters="sRGB">
<feFlood flood-opacity="0" result="BackgroundImageFix"/>
<feBlend mode="normal" in="SourceGraphic" in2="BackgroundImageFix" result="shape"/>
<feGaussianBlur stdDeviation="62.3814" result="effect1_foregroundBlur_52_645"/>
</filter>
<filter id="filter13_f_52_645" x="-776.887" y="-44.6671" width="1151.24" height="1144.72" filterUnits="userSpaceOnUse" color-interpolation-filters="sRGB">
<feFlood flood-opacity="0" result="BackgroundImageFix"/>
<feBlend mode="normal" in="SourceGraphic" in2="BackgroundImageFix" result="shape"/>
<feGaussianBlur stdDeviation="106.94" result="effect1_foregroundBlur_52_645"/>
</filter>
<linearGradient id="paint0_linear_52_645" x1="1335.14" y1="997.318" x2="1509.27" y2="1322.59" gradientUnits="userSpaceOnUse">
<stop stop-color="white"/>
<stop offset="1" stop-color="#391DE8"/>
</linearGradient>
<linearGradient id="paint1_linear_52_645" x1="1063.17" y1="585.818" x2="1975.44" y2="1437.7" gradientUnits="userSpaceOnUse">
<stop stop-color="white"/>
<stop offset="1" stop-color="white" stop-opacity="0"/>
</linearGradient>
<linearGradient id="paint2_linear_52_645" x1="490.852" y1="1021.09" x2="664.985" y2="1346.37" gradientUnits="userSpaceOnUse">
<stop stop-color="white"/>
<stop offset="1" stop-color="#391DE8"/>
</linearGradient>
<linearGradient id="paint3_linear_52_645" x1="301.832" y1="585.818" x2="-610.438" y2="1437.7" gradientUnits="userSpaceOnUse">
<stop stop-color="white"/>
<stop offset="1" stop-color="white" stop-opacity="0"/>
</linearGradient>
<clipPath id="clip0_52_645">
<rect width="1440" height="908" fill="white"/>
</clipPath>
</defs>
</svg>
