<svg width="32" height="32" viewBox="0 0 32 32" fill="none" xmlns="http://www.w3.org/2000/svg">
<path d="M23.2782 22.5919C21.864 24.0297 18.7551 27.1905 16.9249 29.0513C16.1412 29.8481 14.8593 29.8486 14.0757 29.0519C12.276 27.2222 9.23183 24.1271 7.72183 22.5919C3.42606 18.2244 3.42606 11.1432 7.72183 6.77565C12.0176 2.40812 18.9824 2.40812 23.2782 6.77565C27.5739 11.1432 27.5739 18.2244 23.2782 22.5919Z" stroke="#002B6B" stroke-width="2" stroke-linecap="round" stroke-linejoin="round"/>
<path d="M19.625 14.6838C19.625 17 17.7782 18.8777 15.5 18.8777C13.2218 18.8777 11.375 17 11.375 14.6838C11.375 12.3675 13.2218 10.4899 15.5 10.4899C17.7782 10.4899 19.625 12.3675 19.625 14.6838Z" stroke="#002B6B" stroke-width="2" stroke-linecap="round" stroke-linejoin="round"/>
</svg>
