<svg width="15" height="15" viewBox="0 0 15 15" fill="none" xmlns="http://www.w3.org/2000/svg">
<path d="M5.3669 5.1475L6.99065 1.8775C7.03792 1.78287 7.11061 1.70327 7.20058 1.64764C7.29056 1.592 7.39425 1.56254 7.50003 1.56254C7.60581 1.56254 7.7095 1.592 7.79947 1.64764C7.88944 1.70327 7.96214 1.78287 8.0094 1.8775L9.63315 5.1475L13.2632 5.675C13.3679 5.68952 13.4664 5.73318 13.5474 5.80101C13.6285 5.86883 13.6889 5.95808 13.7217 6.05858C13.7545 6.15907 13.7583 6.26676 13.7328 6.36935C13.7073 6.47193 13.6535 6.56529 13.5775 6.63875L10.9513 9.1825L11.5713 12.7762C11.6507 13.2375 11.1632 13.5887 10.7463 13.3713L7.50003 11.6737L4.25315 13.3713C3.8369 13.5894 3.3494 13.2375 3.42878 12.7756L4.04878 9.18188L1.42253 6.63813C1.34689 6.56461 1.2934 6.47135 1.26813 6.36895C1.24286 6.26654 1.24682 6.1591 1.27957 6.05884C1.31232 5.95858 1.37254 5.86951 1.45338 5.80177C1.53423 5.73403 1.63246 5.69032 1.7369 5.67563L5.3669 5.1475Z" fill="#FFC805"/>
</svg>
