<svg width="12" height="12" viewBox="0 0 12 12" fill="none" xmlns="http://www.w3.org/2000/svg">
<path d="M11.3335 0.0822365C11.7184 -0.193786 12.1936 0.281359 11.9176 0.666244L8.26739 5.75601C8.16283 5.90181 8.16283 6.09803 8.26739 6.24383L11.9176 11.3336C12.1936 11.7185 11.7184 12.1936 11.3335 11.9176L6.24378 8.26744C6.09798 8.16288 5.90176 8.16288 5.75597 8.26744L0.666195 11.9176C0.281311 12.1936 -0.193834 11.7185 0.0821895 11.3336L3.73235 6.24383C3.83691 6.09803 3.83691 5.90181 3.73236 5.75601L0.0821888 0.666244C-0.193834 0.281358 0.281311 -0.193786 0.666196 0.0822368L5.75597 3.7324C5.90176 3.83696 6.09798 3.83696 6.24378 3.7324L11.3335 0.0822365Z" fill="#A45DFF"/>
</svg>
