<svg width="16" height="16" viewBox="0 0 16 16" fill="none" xmlns="http://www.w3.org/2000/svg">
<path d="M7.60228 0.337681C7.67642 -0.112406 8.32358 -0.112405 8.39772 0.337682L9.37811 6.28969C9.40619 6.46018 9.53982 6.59381 9.71031 6.62189L15.6623 7.60228C16.1124 7.67642 16.1124 8.32358 15.6623 8.39772L9.71031 9.37811C9.53982 9.40619 9.40619 9.53982 9.37811 9.71031L8.39772 15.6623C8.32358 16.1124 7.67642 16.1124 7.60228 15.6623L6.62189 9.71031C6.59381 9.53982 6.46018 9.40619 6.28969 9.37811L0.337681 8.39772C-0.112406 8.32358 -0.112405 7.67642 0.337682 7.60228L6.28969 6.62189C6.46018 6.59381 6.59381 6.46018 6.62189 6.28969L7.60228 0.337681Z" fill="#A45DFF"/>
</svg>
